<mxfile host="app.diagrams.net" modified="2021-12-09T08:43:12.765Z" agent="5.0 (Windows NT 10.0; Win64; x64) AppleWebKit/537.36 (KHTML, like Gecko) Chrome/96.0.4664.45 Safari/537.36" etag="a7cKsJMNgxwW4a-jU_60" version="15.9.1" type="github" pages="5">
  <diagram name="Page-1" id="dd472eb7-4b8b-5cd9-a60b-b15522922e76">
    <mxGraphModel dx="1422" dy="762" grid="0" gridSize="10" guides="1" tooltips="1" connect="1" arrows="1" fold="1" page="0" pageScale="1" pageWidth="1100" pageHeight="850" background="none" math="0" shadow="0">
      <root>
        <mxCell id="0" />
        <mxCell id="1" parent="0" />
        <mxCell id="e7wq9mSCcDppuuJi101E-3" value="" style="group" parent="1" vertex="1" connectable="0">
          <mxGeometry x="230" y="80" width="600" height="600" as="geometry" />
        </mxCell>
        <mxCell id="45236fa5f4b8e91a-5" value="&lt;font style=&quot;font-size: 22px&quot;&gt;退款集群&lt;br&gt;2.5 PB&lt;br&gt;&lt;/font&gt;" style="ellipse;whiteSpace=wrap;html=1;rounded=0;shadow=0;dashed=0;comic=0;fontFamily=Verdana;fontSize=22;fillColor=#dae8fc;strokeColor=#6c8ebf;" parent="e7wq9mSCcDppuuJi101E-3" vertex="1">
          <mxGeometry width="200" height="200" as="geometry" />
        </mxCell>
        <mxCell id="45236fa5f4b8e91a-6" value="核心集群&lt;br&gt;&amp;nbsp;2.6 PB" style="ellipse;whiteSpace=wrap;html=1;rounded=0;shadow=0;dashed=0;comic=0;fontFamily=Verdana;fontSize=22;fillColor=#dae8fc;strokeColor=#6c8ebf;" parent="e7wq9mSCcDppuuJi101E-3" vertex="1">
          <mxGeometry x="400" width="200" height="200" as="geometry" />
        </mxCell>
        <mxCell id="45236fa5f4b8e91a-7" value="fit集群&lt;br&gt;10 PB" style="ellipse;whiteSpace=wrap;html=1;rounded=0;shadow=0;dashed=0;comic=0;fontFamily=Verdana;fontSize=22;fillColor=#dae8fc;strokeColor=#6c8ebf;" parent="e7wq9mSCcDppuuJi101E-3" vertex="1">
          <mxGeometry x="400" y="400" width="200" height="200" as="geometry" />
        </mxCell>
        <mxCell id="45236fa5f4b8e91a-8" value="订单集群&lt;br&gt;1.7 PB" style="ellipse;whiteSpace=wrap;html=1;rounded=0;shadow=0;dashed=0;comic=0;fontFamily=Verdana;fontSize=22;fillColor=#dae8fc;strokeColor=#6c8ebf;" parent="e7wq9mSCcDppuuJi101E-3" vertex="1">
          <mxGeometry y="400" width="200" height="200" as="geometry" />
        </mxCell>
        <mxCell id="374e34682ed331ee-1" value="&lt;span&gt;&lt;font style=&quot;font-size: 30px&quot;&gt;荔景大集群&lt;br&gt;16.5 PB&lt;br&gt;&lt;/font&gt;&lt;/span&gt;" style="ellipse;whiteSpace=wrap;html=1;rounded=0;shadow=0;dashed=0;comic=0;fontFamily=Verdana;fontSize=22;fillColor=#dae8fc;strokeColor=#6c8ebf;labelBorderColor=none;" parent="e7wq9mSCcDppuuJi101E-3" vertex="1">
          <mxGeometry x="120" y="115" width="360" height="370" as="geometry" />
        </mxCell>
      </root>
    </mxGraphModel>
  </diagram>
  <diagram id="4afgLCc1dEWonRlIrafz" name="第 4 页">
    <mxGraphModel dx="1422" dy="762" grid="0" gridSize="10" guides="1" tooltips="1" connect="1" arrows="1" fold="1" page="0" pageScale="1" pageWidth="827" pageHeight="1169" math="0" shadow="0">
      <root>
        <mxCell id="CyjUIUi3cRFa5IfwUqBt-0" />
        <mxCell id="CyjUIUi3cRFa5IfwUqBt-1" parent="CyjUIUi3cRFa5IfwUqBt-0" />
        <mxCell id="viXS1CL5_idXT0G1bb3e-28" value="&lt;font style=&quot;font-size: 14px&quot;&gt;&lt;span style=&quot;font-family: &amp;#34;verdana&amp;#34;&quot;&gt;退款集群&lt;/span&gt;&lt;br style=&quot;font-family: &amp;#34;verdana&amp;#34;&quot;&gt;&lt;span style=&quot;font-family: &amp;#34;verdana&amp;#34;&quot;&gt;2.5 PB&lt;/span&gt;&lt;/font&gt;" style="shape=mxgraph.basic.three_corner_round_rect;dx=18;flipH=1;html=1;fillColor=#dae8fc;strokeColor=#6c8ebf;shadow=0;fontSize=12;align=center;fontStyle=0;whiteSpace=wrap;rounded=0;" vertex="1" parent="CyjUIUi3cRFa5IfwUqBt-1">
          <mxGeometry x="270" y="310" width="100" height="100" as="geometry" />
        </mxCell>
        <mxCell id="viXS1CL5_idXT0G1bb3e-29" value="&lt;font style=&quot;font-size: 14px&quot;&gt;&lt;span style=&quot;font-family: &amp;#34;verdana&amp;#34;&quot;&gt;核心集群&lt;/span&gt;&lt;br style=&quot;font-family: &amp;#34;verdana&amp;#34;&quot;&gt;&lt;span style=&quot;font-family: &amp;#34;verdana&amp;#34;&quot;&gt;&amp;nbsp;2.6 PB&lt;/span&gt;&lt;/font&gt;" style="shape=mxgraph.basic.three_corner_round_rect;dx=18;html=1;fillColor=#d5e8d4;strokeColor=#82b366;shadow=0;fontSize=12;align=center;fontStyle=0;whiteSpace=wrap;rounded=0;" vertex="1" parent="CyjUIUi3cRFa5IfwUqBt-1">
          <mxGeometry x="430" y="310" width="100" height="100" as="geometry" />
        </mxCell>
        <mxCell id="viXS1CL5_idXT0G1bb3e-30" value="&lt;font style=&quot;font-size: 14px&quot;&gt;&lt;span style=&quot;font-family: &amp;#34;verdana&amp;#34;&quot;&gt;订单集群&lt;/span&gt;&lt;br style=&quot;font-family: &amp;#34;verdana&amp;#34;&quot;&gt;&lt;span style=&quot;font-family: &amp;#34;verdana&amp;#34;&quot;&gt;1.7 PB&lt;/span&gt;&lt;/font&gt;" style="shape=mxgraph.basic.three_corner_round_rect;dx=18;flipH=1;flipV=1;html=1;fillColor=#fff2cc;strokeColor=#d6b656;shadow=0;fontSize=12;align=center;fontStyle=0;whiteSpace=wrap;rounded=0;" vertex="1" parent="CyjUIUi3cRFa5IfwUqBt-1">
          <mxGeometry x="270" y="470" width="100" height="100" as="geometry" />
        </mxCell>
        <mxCell id="viXS1CL5_idXT0G1bb3e-31" value="&lt;font style=&quot;font-size: 14px&quot;&gt;&lt;span style=&quot;font-family: &amp;#34;verdana&amp;#34;&quot;&gt;fit集群&lt;/span&gt;&lt;br style=&quot;font-family: &amp;#34;verdana&amp;#34;&quot;&gt;&lt;span style=&quot;font-family: &amp;#34;verdana&amp;#34;&quot;&gt;10 PB&lt;/span&gt;&lt;/font&gt;" style="shape=mxgraph.basic.three_corner_round_rect;dx=18;flipV=1;html=1;fillColor=#f8cecc;strokeColor=#b85450;shadow=0;fontSize=12;align=center;fontStyle=0;whiteSpace=wrap;rounded=0;" vertex="1" parent="CyjUIUi3cRFa5IfwUqBt-1">
          <mxGeometry x="430" y="470" width="100" height="100" as="geometry" />
        </mxCell>
        <mxCell id="viXS1CL5_idXT0G1bb3e-36" value="&lt;font style=&quot;font-size: 14px&quot;&gt;&lt;span style=&quot;color: rgb(0 , 0 , 0) ; font-family: &amp;#34;verdana&amp;#34;&quot;&gt;荔景大集群&lt;/span&gt;&lt;br style=&quot;color: rgb(0 , 0 , 0) ; font-family: &amp;#34;verdana&amp;#34;&quot;&gt;&lt;span style=&quot;color: rgb(0 , 0 , 0) ; font-family: &amp;#34;verdana&amp;#34;&quot;&gt;16.5 PB&lt;/span&gt;&lt;/font&gt;" style="rounded=1;whiteSpace=wrap;html=1;fontSize=20;arcSize=36;fillColor=#FFB366;strokeColor=#82b366;fontFamily=Helvetica;fontColor=#FFFFFF;" vertex="1" parent="CyjUIUi3cRFa5IfwUqBt-1">
          <mxGeometry x="350" y="390" width="100" height="100" as="geometry" />
        </mxCell>
      </root>
    </mxGraphModel>
  </diagram>
  <diagram id="_gGg-iMAXQinFC06fHHj" name="第 2 页">
    <mxGraphModel dx="1422" dy="762" grid="1" gridSize="10" guides="1" tooltips="1" connect="1" arrows="1" fold="1" page="1" pageScale="1" pageWidth="827" pageHeight="1169" math="0" shadow="0">
      <root>
        <mxCell id="JdNSgaS2HLalLxtqA93W-0" />
        <mxCell id="JdNSgaS2HLalLxtqA93W-1" parent="JdNSgaS2HLalLxtqA93W-0" />
        <mxCell id="JdNSgaS2HLalLxtqA93W-2" value="" style="aspect=fixed;perimeter=ellipsePerimeter;html=1;align=center;shadow=0;dashed=0;fontColor=#4277BB;labelBackgroundColor=#ffffff;fontSize=12;spacingTop=3;image;image=img/lib/ibm/miscellaneous/cognitive_services.svg;" vertex="1" parent="JdNSgaS2HLalLxtqA93W-1">
          <mxGeometry x="340" y="647.5" width="60" height="60" as="geometry" />
        </mxCell>
        <mxCell id="JdNSgaS2HLalLxtqA93W-3" value="" style="aspect=fixed;perimeter=ellipsePerimeter;html=1;align=center;shadow=0;dashed=0;fontColor=#4277BB;labelBackgroundColor=#ffffff;fontSize=12;spacingTop=3;image;image=img/lib/ibm/users/sensor.svg;" vertex="1" parent="JdNSgaS2HLalLxtqA93W-1">
          <mxGeometry x="530" y="620" width="115" height="115" as="geometry" />
        </mxCell>
        <mxCell id="JdNSgaS2HLalLxtqA93W-4" value="" style="aspect=fixed;perimeter=ellipsePerimeter;html=1;align=center;shadow=0;dashed=0;fontColor=#4277BB;labelBackgroundColor=#ffffff;fontSize=12;spacingTop=3;image;image=img/lib/ibm/vpc/TransitGateway.svg;" vertex="1" parent="JdNSgaS2HLalLxtqA93W-1">
          <mxGeometry x="200" y="510" width="60" height="60" as="geometry" />
        </mxCell>
        <mxCell id="LiRhk6oFk_6Me18cpOod-0" value="" style="aspect=fixed;perimeter=ellipsePerimeter;html=1;align=center;shadow=0;dashed=0;fontColor=#4277BB;labelBackgroundColor=#ffffff;fontSize=12;spacingTop=3;image;image=img/lib/ibm/vpc/PowerInstance.svg;" vertex="1" parent="JdNSgaS2HLalLxtqA93W-1">
          <mxGeometry x="420" y="360" width="60" height="60" as="geometry" />
        </mxCell>
        <mxCell id="OuJx0LLyDt-9chan3G7v-1" value="" style="aspect=fixed;perimeter=ellipsePerimeter;html=1;align=center;shadow=0;dashed=0;fontColor=#4277BB;labelBackgroundColor=#ffffff;fontSize=12;spacingTop=3;image;image=img/lib/ibm/blockchain/hyperledger_fabric.svg;imageBackground=none;" vertex="1" parent="JdNSgaS2HLalLxtqA93W-1">
          <mxGeometry x="260" y="320" width="60" height="60" as="geometry" />
        </mxCell>
        <mxCell id="OuJx0LLyDt-9chan3G7v-2" value="" style="aspect=fixed;perimeter=ellipsePerimeter;html=1;align=center;shadow=0;dashed=0;fontColor=#4277BB;labelBackgroundColor=#ffffff;fontSize=12;spacingTop=3;image;image=img/lib/ibm/blockchain/existing_enterprise_systems.svg;" vertex="1" parent="JdNSgaS2HLalLxtqA93W-1">
          <mxGeometry x="380" y="500" width="60" height="60" as="geometry" />
        </mxCell>
        <mxCell id="OuJx0LLyDt-9chan3G7v-3" value="" style="aspect=fixed;perimeter=ellipsePerimeter;html=1;align=center;shadow=0;dashed=0;fontColor=#4277BB;labelBackgroundColor=#ffffff;fontSize=12;spacingTop=3;image;image=img/lib/ibm/social/networking.svg;" vertex="1" parent="JdNSgaS2HLalLxtqA93W-1">
          <mxGeometry x="150" y="230" width="60" height="60" as="geometry" />
        </mxCell>
        <mxCell id="OuJx0LLyDt-9chan3G7v-4" value="" style="shape=mxgraph.signs.science.nuclear_1;html=1;pointerEvents=1;fillColor=#b0e3e6;strokeColor=#0e8088;verticalLabelPosition=bottom;verticalAlign=top;align=center;sketch=0;fontSize=20;" vertex="1" parent="JdNSgaS2HLalLxtqA93W-1">
          <mxGeometry x="470" y="142" width="99" height="88" as="geometry" />
        </mxCell>
      </root>
    </mxGraphModel>
  </diagram>
  <diagram id="RDps-XzdvMWTBMIRF5ZM" name="第 3 页">
    <mxGraphModel dx="1422" dy="762" grid="0" gridSize="10" guides="1" tooltips="1" connect="1" arrows="1" fold="1" page="0" pageScale="1" pageWidth="827" pageHeight="1169" math="0" shadow="0">
      <root>
        <mxCell id="iNoRGK1bMKIYvExlUC_A-0" />
        <mxCell id="iNoRGK1bMKIYvExlUC_A-1" parent="iNoRGK1bMKIYvExlUC_A-0" />
        <mxCell id="nGt48Ss-JruuddotP_y--0" value="&lt;font style=&quot;font-size: 20px&quot;&gt;&amp;nbsp; 项目介绍&lt;/font&gt;" style="shape=rect;rounded=1;whiteSpace=wrap;html=1;shadow=0;strokeColor=none;fillColor=#64BBE2;arcSize=30;fontSize=14;spacingLeft=42;fontStyle=1;fontColor=#FFFFFF;align=left;" vertex="1" parent="iNoRGK1bMKIYvExlUC_A-1">
          <mxGeometry x="353" y="226" width="220" height="40" as="geometry" />
        </mxCell>
        <mxCell id="nGt48Ss-JruuddotP_y--1" value="2" style="shape=ellipse;perimeter=ellipsePerimeter;fontSize=22;fontStyle=1;shadow=0;strokeColor=#ffffff;fillColor=#10739E;strokeWidth=4;fontColor=#ffffff;align=center;" vertex="1" parent="iNoRGK1bMKIYvExlUC_A-1">
          <mxGeometry x="314" y="216" width="60" height="60" as="geometry" />
        </mxCell>
        <mxCell id="nGt48Ss-JruuddotP_y--2" value="&lt;font style=&quot;font-size: 20px&quot;&gt;&amp;nbsp; 未来规划&lt;/font&gt;" style="shape=rect;rounded=1;whiteSpace=wrap;html=1;shadow=0;strokeColor=none;fillColor=#F8C382;arcSize=30;fontSize=14;spacingLeft=42;fontStyle=1;fontColor=#FFFFFF;align=left;" vertex="1" parent="iNoRGK1bMKIYvExlUC_A-1">
          <mxGeometry x="353" y="292" width="220" height="40" as="geometry" />
        </mxCell>
        <mxCell id="nGt48Ss-JruuddotP_y--3" value="3" style="shape=ellipse;perimeter=ellipsePerimeter;fontSize=22;fontStyle=1;shadow=0;strokeColor=#ffffff;fillColor=#F2931E;strokeWidth=4;fontColor=#ffffff;align=center;" vertex="1" parent="iNoRGK1bMKIYvExlUC_A-1">
          <mxGeometry x="314" y="282" width="60" height="60" as="geometry" />
        </mxCell>
        <mxCell id="nGt48Ss-JruuddotP_y--4" value="&lt;font style=&quot;font-size: 20px&quot;&gt;&amp;nbsp; 个人总结&lt;/font&gt;" style="shape=rect;rounded=1;whiteSpace=wrap;html=1;shadow=0;strokeColor=none;fillColor=#F08E81;arcSize=30;fontSize=14;spacingLeft=42;fontStyle=1;fontColor=#FFFFFF;align=left;" vertex="1" parent="iNoRGK1bMKIYvExlUC_A-1">
          <mxGeometry x="353" y="359" width="220" height="40" as="geometry" />
        </mxCell>
        <mxCell id="nGt48Ss-JruuddotP_y--5" value="4" style="shape=ellipse;perimeter=ellipsePerimeter;fontSize=22;fontStyle=1;shadow=0;strokeColor=#ffffff;fillColor=#AE4132;strokeWidth=4;fontColor=#ffffff;align=center;" vertex="1" parent="iNoRGK1bMKIYvExlUC_A-1">
          <mxGeometry x="314" y="349" width="60" height="60" as="geometry" />
        </mxCell>
        <mxCell id="nGt48Ss-JruuddotP_y--8" value="&lt;font style=&quot;font-size: 20px&quot;&gt;&amp;nbsp; 工作总结&lt;/font&gt;" style="shape=rect;rounded=1;whiteSpace=wrap;html=1;shadow=0;strokeColor=none;fillColor=#61C6CE;arcSize=30;fontSize=14;spacingLeft=42;fontStyle=1;fontColor=#FFFFFF;align=left;" vertex="1" parent="iNoRGK1bMKIYvExlUC_A-1">
          <mxGeometry x="353" y="159" width="220" height="40" as="geometry" />
        </mxCell>
        <mxCell id="nGt48Ss-JruuddotP_y--9" value="1" style="shape=ellipse;perimeter=ellipsePerimeter;fontSize=22;fontStyle=1;shadow=0;strokeColor=#ffffff;fillColor=#12AAB5;strokeWidth=4;fontColor=#ffffff;align=center;" vertex="1" parent="iNoRGK1bMKIYvExlUC_A-1">
          <mxGeometry x="314" y="149" width="60" height="60" as="geometry" />
        </mxCell>
      </root>
    </mxGraphModel>
  </diagram>
  <diagram id="OXo509frXEEvn5S-eeLl" name="第 5 页">
    <mxGraphModel dx="1422" dy="762" grid="0" gridSize="10" guides="1" tooltips="1" connect="1" arrows="1" fold="1" page="0" pageScale="1" pageWidth="827" pageHeight="1169" math="0" shadow="0">
      <root>
        <mxCell id="VIHGUV38CDDJUslc3rdD-0" />
        <mxCell id="VIHGUV38CDDJUslc3rdD-1" parent="VIHGUV38CDDJUslc3rdD-0" />
      </root>
    </mxGraphModel>
  </diagram>
</mxfile>
